<svg width="24" height="24" viewBox="0 0 24 24" fill="none" xmlns="http://www.w3.org/2000/svg">
<path d="M22.2026 4.13794H1.79742C0.804703 4.13794 0 4.94264 0 5.93536V18.0647C0 19.0574 0.804703 19.8622 1.79742 19.8622H22.2026C23.1952 19.8622 24 19.0575 24 18.0647V5.93536C24 4.94264 23.1953 4.13794 22.2026 4.13794Z" fill="#73AF00"/>
<path d="M11.7848 6.33788L3.06341 11.6465C2.79852 11.8077 2.79852 12.1922 3.06341 12.3534L11.7848 17.6622C11.9169 17.7426 12.0829 17.7426 12.2151 17.6622L20.9365 12.3535C21.2014 12.1923 21.2014 11.8078 20.9365 11.6466L12.2151 6.33788C12.083 6.25749 11.9169 6.25749 11.7848 6.33788Z" fill="#FFE15A"/>
<path d="M12 15.3103C13.8282 15.3103 15.3103 13.8282 15.3103 12C15.3103 10.1718 13.8282 8.6897 12 8.6897C10.1718 8.6897 8.6897 10.1718 8.6897 12C8.6897 13.8282 10.1718 15.3103 12 15.3103Z" fill="#41479B"/>
<path d="M9.15946 10.3065C9.00328 10.5679 8.88267 10.8521 8.80298 11.1538C10.6381 11.0157 13.3528 11.5291 15.0806 13.2057C15.1934 12.9178 15.2678 12.6112 15.2957 12.2906C13.5117 10.789 11.0452 10.2551 9.15946 10.3065Z" fill="#F5F5F5"/>
<path d="M12.1371 13.1296L12.2252 13.3939L12.5038 13.396C12.5399 13.3963 12.5548 13.4423 12.5258 13.4638L12.3017 13.6293L12.3857 13.8949C12.3966 13.9293 12.3574 13.9577 12.3281 13.9367L12.1015 13.7747L11.8748 13.9367C11.8455 13.9577 11.8064 13.9293 11.8172 13.8949L11.9013 13.6293L11.6772 13.4638C11.6482 13.4423 11.6631 13.3963 11.6992 13.396L11.9777 13.3939L12.0659 13.1296C12.0773 13.0953 12.1257 13.0953 12.1371 13.1296Z" fill="#F5F5F5"/>
<path d="M13.2201 13.8132L13.258 13.9269L13.3779 13.9279C13.3934 13.9279 13.3998 13.9478 13.3874 13.957L13.2909 14.0282L13.327 14.1425C13.3317 14.1574 13.3149 14.1696 13.3022 14.1605L13.2047 14.0908L13.1071 14.1605C13.0945 14.1696 13.0776 14.1574 13.0823 14.1425L13.1184 14.0282L13.022 13.957C13.0095 13.9478 13.0159 13.928 13.0314 13.9279L13.1514 13.9269L13.1893 13.8132C13.1943 13.7984 13.2152 13.7984 13.2201 13.8132Z" fill="#F5F5F5"/>
<path d="M11.669 12.6275L11.707 12.7413L11.8269 12.7422C11.8424 12.7423 11.8488 12.7621 11.8363 12.7714L11.7399 12.8426L11.776 12.9569C11.7806 12.9717 11.7639 12.9839 11.7512 12.9749L11.6537 12.9052L11.5561 12.9749C11.5435 12.9839 11.5266 12.9717 11.5313 12.9569L11.5674 12.8426L11.4709 12.7714C11.4585 12.7622 11.4649 12.7423 11.4804 12.7422L11.6003 12.7413L11.6382 12.6275C11.6432 12.6129 11.6641 12.6129 11.669 12.6275Z" fill="#F5F5F5"/>
<path d="M9.56871 12.4896L9.60663 12.6034L9.72654 12.6043C9.74205 12.6044 9.74852 12.6242 9.736 12.6335L9.63954 12.7047L9.67568 12.819C9.68032 12.8338 9.66354 12.846 9.65083 12.837L9.55329 12.7673L9.45574 12.837C9.44313 12.846 9.42625 12.8338 9.43094 12.819L9.46708 12.7047L9.37061 12.6335C9.3581 12.6243 9.36457 12.6044 9.38008 12.6043L9.49999 12.6034L9.53791 12.4896C9.54297 12.475 9.56379 12.475 9.56871 12.4896Z" fill="#F5F5F5"/>
<path d="M11.3258 13.774L11.3637 13.8877L11.4836 13.8886C11.4991 13.8887 11.5056 13.9086 11.4931 13.9178L11.3966 13.989L11.4327 14.1033C11.4374 14.1181 11.4206 14.1304 11.4079 14.1213L11.3104 14.0516L11.2128 14.1213C11.2002 14.1304 11.1834 14.1181 11.188 14.1033L11.2241 13.989L11.1277 13.9178C11.1152 13.9086 11.1216 13.8888 11.1371 13.8886L11.257 13.8877L11.295 13.774C11.3 13.7593 11.3209 13.7593 11.3258 13.774Z" fill="#F5F5F5"/>
<path d="M10.3589 12.4102L10.39 12.5032L10.488 12.504C10.5007 12.5041 10.506 12.5204 10.4958 12.5279L10.4169 12.5861L10.4465 12.6796C10.4503 12.6917 10.4366 12.7017 10.4262 12.6943L10.3464 12.6373L10.2666 12.6943C10.2563 12.7017 10.2425 12.6917 10.2463 12.6796L10.2759 12.5861L10.197 12.5279C10.1869 12.5204 10.1921 12.5041 10.2048 12.504L10.3029 12.5032L10.3339 12.4102C10.3379 12.3982 10.3549 12.3982 10.3589 12.4102Z" fill="#F5F5F5"/>
<path d="M13.3042 10.4903L13.343 10.6066L13.4657 10.6076C13.4816 10.6076 13.4881 10.6279 13.4753 10.6374L13.3767 10.7103L13.4137 10.8272C13.4185 10.8424 13.4012 10.8549 13.3883 10.8456L13.2885 10.7743L13.1887 10.8456C13.1758 10.8549 13.1586 10.8423 13.1634 10.8272L13.2003 10.7103L13.1017 10.6374C13.0889 10.628 13.0955 10.6077 13.1114 10.6076L13.234 10.6066L13.2728 10.4903C13.2779 10.4751 13.2992 10.4751 13.3042 10.4903Z" fill="#F5F5F5"/>
<path d="M9.70368 11.8413L9.73471 11.9343L9.83277 11.9351C9.84543 11.9352 9.85072 11.9514 9.84055 11.959L9.76166 12.0172L9.79124 12.1107C9.79508 12.1227 9.7813 12.1328 9.77094 12.1254L9.69116 12.0684L9.61138 12.1254C9.60102 12.1328 9.58729 12.1227 9.59108 12.1107L9.62066 12.0172L9.54177 11.959C9.53155 11.9514 9.5368 11.9352 9.54955 11.9351L9.64762 11.9343L9.67865 11.8413C9.68263 11.8293 9.69965 11.8293 9.70368 11.8413Z" fill="#F5F5F5"/>
<path d="M10.1772 13.1521L10.2242 13.293L10.3727 13.2941C10.3919 13.2943 10.3999 13.3188 10.3844 13.3302L10.2649 13.4184L10.3098 13.56C10.3156 13.5783 10.2947 13.5935 10.2791 13.5823L10.1582 13.4959L10.0374 13.5823C10.0218 13.5935 10.0009 13.5783 10.0067 13.56L10.0515 13.4184L9.93199 13.3302C9.91652 13.3188 9.92449 13.2943 9.94371 13.2941L10.0922 13.293L10.1392 13.1521C10.1454 13.1339 10.1712 13.1339 10.1772 13.1521Z" fill="#F5F5F5"/>
<path d="M13.8237 13.8427L13.8533 13.9314L13.9467 13.9321C13.9588 13.9322 13.9638 13.9476 13.9541 13.9548L13.879 14.0103L13.9071 14.0993C13.9107 14.1108 13.8977 14.1204 13.8878 14.1133L13.8118 14.059L13.7357 14.1133C13.7259 14.1204 13.7128 14.1108 13.7164 14.0993L13.7446 14.0103L13.6694 13.9548C13.6597 13.9476 13.6647 13.9322 13.6768 13.9321L13.7702 13.9314L13.7998 13.8427C13.8036 13.8312 13.8199 13.8312 13.8237 13.8427Z" fill="#F5F5F5"/>
<path d="M14.1507 13.1663L14.1886 13.2801L14.3085 13.281C14.324 13.2811 14.3305 13.3009 14.318 13.3102L14.2215 13.3814L14.2576 13.4957C14.2623 13.5105 14.2455 13.5227 14.2328 13.5137L14.1353 13.444L14.0377 13.5137C14.0251 13.5227 14.0083 13.5105 14.013 13.4957L14.0491 13.3814L13.9526 13.3102C13.9402 13.301 13.9466 13.2811 13.9621 13.281L14.082 13.2801L14.1199 13.1663C14.1249 13.1516 14.1457 13.1516 14.1507 13.1663Z" fill="#F5F5F5"/>
</svg>
