<svg width="24" height="24" viewBox="0 0 24 24" fill="none" xmlns="http://www.w3.org/2000/svg">
<path d="M22.2026 4.13794H1.79742C0.804703 4.13794 0 4.94264 0 5.93536V18.0647C0 19.0574 0.804703 19.8622 1.79742 19.8622H22.2026C23.1952 19.8622 24 19.0575 24 18.0647V5.93536C24 4.94264 23.1953 4.13794 22.2026 4.13794Z" fill="#41479B"/>
<path d="M12.1683 5.93832L12.3343 6.4358L12.8587 6.43988C12.9266 6.4404 12.9547 6.52702 12.9001 6.56738L12.4782 6.87891L12.6364 7.37888C12.6569 7.44357 12.5832 7.49719 12.5279 7.45768L12.1013 7.15271L11.6747 7.45768C11.6195 7.49715 11.5457 7.44362 11.5662 7.37888L11.7244 6.87891L11.3025 6.56738C11.2479 6.52702 11.276 6.4404 11.3439 6.43988L11.8683 6.4358L12.0343 5.93832C12.0557 5.87391 12.1469 5.87391 12.1683 5.93832Z" fill="#FFE15A"/>
<path d="M12.1683 16.6194L12.3343 17.1169L12.8587 17.1209C12.9266 17.1215 12.9547 17.2081 12.9001 17.2484L12.4782 17.56L12.6364 18.0599C12.6569 18.1246 12.5832 18.1783 12.5279 18.1387L12.1013 17.8338L11.6747 18.1387C11.6195 18.1782 11.5457 18.1247 11.5662 18.0599L11.7244 17.56L11.3025 17.2484C11.2479 17.2081 11.276 17.1215 11.3439 17.1209L11.8683 17.1169L12.0343 16.6194C12.0557 16.5549 12.1469 16.5549 12.1683 16.6194Z" fill="#FFE15A"/>
<path d="M17.5089 11.2789L17.6748 11.7763L18.1992 11.7804C18.2672 11.7809 18.2953 11.8676 18.2407 11.9079L17.8188 12.2195L17.977 12.7194C17.9974 12.7841 17.9237 12.8377 17.8685 12.7982L17.4419 12.4933L17.0153 12.7982C16.96 12.8377 16.8863 12.7842 16.9068 12.7194L17.065 12.2195L16.6431 11.9079C16.5885 11.8676 16.6166 11.7809 16.6845 11.7804L17.2089 11.7763L17.3748 11.2789C17.3963 11.2145 17.4874 11.2145 17.5089 11.2789Z" fill="#FFE15A"/>
<path d="M6.82775 11.2789L6.99369 11.7763L7.51808 11.7804C7.586 11.7809 7.61413 11.8676 7.55952 11.9079L7.13764 12.2195L7.2958 12.7194C7.31628 12.7841 7.2426 12.8377 7.18733 12.7982L6.76072 12.4933L6.33411 12.7982C6.27889 12.8377 6.20516 12.7842 6.22564 12.7194L6.3838 12.2195L5.96192 11.9079C5.90731 11.8676 5.93544 11.7809 6.00336 11.7804L6.52775 11.7763L6.69369 11.2789C6.71516 11.2145 6.80633 11.2145 6.82775 11.2789Z" fill="#FFE15A"/>
<path d="M7.62951 8.48996L7.79545 8.98744L8.31984 8.99152C8.38776 8.99203 8.41588 9.07866 8.36128 9.11902L7.9394 9.43055L8.09756 9.93052C8.11804 9.9952 8.04435 10.0488 7.98909 10.0093L7.56248 9.70435L7.13587 10.0093C7.08065 10.0488 7.00692 9.99525 7.0274 9.93052L7.18556 9.43055L6.76368 9.11902C6.70907 9.07866 6.7372 8.99203 6.80512 8.99152L7.32951 8.98744L7.49545 8.48996C7.51692 8.42555 7.60799 8.42555 7.62951 8.48996Z" fill="#FFE15A"/>
<path d="M16.8795 13.8305L17.0454 14.328L17.5698 14.3321C17.6378 14.3326 17.6659 14.4192 17.6113 14.4596L17.1894 14.7711L17.3476 15.2711C17.368 15.3358 17.2944 15.3894 17.2391 15.3499L16.8125 15.0449L16.3859 15.3499C16.3307 15.3893 16.2569 15.3358 16.2774 15.2711L16.4356 14.7711L16.0137 14.4596C15.9591 14.4192 15.9872 14.3326 16.0551 14.3321L16.5795 14.328L16.7454 13.8305C16.7669 13.7661 16.858 13.7661 16.8795 13.8305Z" fill="#FFE15A"/>
<path d="M14.9247 6.53521L15.0907 7.03269L15.6151 7.03677C15.683 7.03729 15.7111 7.12391 15.6565 7.16427L15.2346 7.4758L15.3928 7.97577C15.4133 8.04046 15.3396 8.09408 15.2843 8.05457L14.8577 7.7496L14.431 8.05457C14.3758 8.09404 14.3021 8.0405 14.3226 7.97577L14.4807 7.4758L14.0588 7.16427C14.0042 7.12391 14.0324 7.03729 14.1003 7.03677L14.6247 7.03269L14.7906 6.53521C14.8121 6.47085 14.9032 6.47085 14.9247 6.53521Z" fill="#FFE15A"/>
<path d="M9.58434 15.7853L9.75028 16.2828L10.2747 16.2868C10.3426 16.2874 10.3707 16.374 10.3161 16.4143L9.89423 16.7259L10.0524 17.2258C10.0729 17.2905 9.99919 17.3441 9.94392 17.3046L9.51731 16.9997L9.0907 17.3046C9.03548 17.3441 8.96175 17.2906 8.98223 17.2258L9.14039 16.7259L8.71852 16.4143C8.66391 16.374 8.69203 16.2874 8.75995 16.2868L9.28434 16.2828L9.45028 15.7853C9.47175 15.7208 9.56292 15.7208 9.58434 15.7853Z" fill="#FFE15A"/>
<path d="M16.7454 8.48996L16.5795 8.98744L16.0551 8.99152C15.9872 8.99203 15.9591 9.07866 16.0137 9.11902L16.4356 9.43055L16.2774 9.93052C16.2569 9.9952 16.3306 10.0488 16.3859 10.0093L16.8125 9.70435L17.2391 10.0093C17.2943 10.0488 17.368 9.99525 17.3476 9.93052L17.1894 9.43055L17.6113 9.11902C17.6659 9.07866 17.6378 8.99203 17.5698 8.99152L17.0454 8.98744L16.8795 8.48996C16.858 8.42555 16.7669 8.42555 16.7454 8.48996Z" fill="#FFE15A"/>
<path d="M7.49545 13.8305L7.32951 14.328L6.80512 14.3321C6.7372 14.3326 6.70907 14.4192 6.76368 14.4596L7.18556 14.7711L7.0274 15.2711C7.00692 15.3358 7.0806 15.3894 7.13587 15.3499L7.56248 15.0449L7.98909 15.3499C8.04431 15.3893 8.11804 15.3358 8.09756 15.2711L7.9394 14.7711L8.36128 14.4596C8.41588 14.4192 8.38776 14.3326 8.31984 14.3321L7.79545 14.328L7.62951 13.8305C7.60799 13.7661 7.51692 13.7661 7.49545 13.8305Z" fill="#FFE15A"/>
<path d="M9.45028 6.53521L9.28434 7.03269L8.75995 7.03677C8.69203 7.03729 8.66391 7.12391 8.71852 7.16427L9.14039 7.4758L8.98223 7.97577C8.96175 8.04046 9.03544 8.09408 9.0907 8.05457L9.51731 7.7496L9.94392 8.05457C9.99914 8.09404 10.0729 8.0405 10.0524 7.97577L9.89423 7.4758L10.3161 7.16427C10.3707 7.12391 10.3426 7.03729 10.2747 7.03677L9.75028 7.03269L9.58434 6.53521C9.56283 6.47085 9.47175 6.47085 9.45028 6.53521Z" fill="#FFE15A"/>
<path d="M14.7906 15.7853L14.6247 16.2828L14.1003 16.2868C14.0324 16.2874 14.0042 16.374 14.0588 16.4143L14.4807 16.7259L14.3226 17.2258C14.3021 17.2905 14.3758 17.3441 14.431 17.3046L14.8576 16.9997L15.2843 17.3046C15.3395 17.3441 15.4132 17.2906 15.3927 17.2258L15.2346 16.7259L15.6564 16.4143C15.7111 16.374 15.6829 16.2874 15.615 16.2868L15.0906 16.2828L14.9247 15.7853C14.9032 15.7208 14.8121 15.7208 14.7906 15.7853Z" fill="#FFE15A"/>
</svg>
