<svg width="24" height="24" viewBox="0 0 24 24" fill="none" xmlns="http://www.w3.org/2000/svg">
<path d="M22.2026 19.8621H1.79742C0.804703 19.8621 0 19.0574 0 18.0646V5.93536C0 4.94269 0.804703 4.13794 1.79742 4.13794H22.2026C23.1952 4.13794 24 4.94264 24 5.93536V18.0647C24 19.0574 23.1953 19.8621 22.2026 19.8621Z" fill="#F5F5F5"/>
<path d="M24 10.7586H13.2414V4.13794H10.7586V10.7586H0V13.2414H10.7586V19.8621H13.2414V13.2414H24V10.7586Z" fill="#FF4B55"/>
<path d="M7.03463 6.88275C6.62476 6.92395 6.22322 6.96525 5.82113 7.00659C5.86247 6.60445 5.90372 6.20292 5.94502 5.79309C5.56913 5.8417 5.18987 5.8417 4.81397 5.79309C4.85518 6.20297 4.89647 6.6045 4.93787 7.00659C4.53572 6.96529 4.13415 6.924 3.72437 6.88275C3.77297 7.25859 3.77297 7.6379 3.72437 8.01375C4.13424 7.97254 4.53577 7.93125 4.93787 7.8899C4.89652 8.29204 4.85522 8.69358 4.81397 9.1034C5.18987 9.05479 5.56913 9.05479 5.94502 9.1034C5.90382 8.69358 5.86247 8.292 5.82113 7.8899C6.22327 7.9312 6.6248 7.9725 7.03463 8.01375C6.98602 7.6379 6.98602 7.25854 7.03463 6.88275Z" fill="#FF4B55"/>
<path d="M20.2758 6.88275C19.866 6.92395 19.4644 6.96525 19.0623 7.00659C19.1037 6.60445 19.1449 6.20292 19.1862 5.79309C18.8103 5.8417 18.4311 5.8417 18.0552 5.79309C18.0964 6.20297 18.1377 6.6045 18.1791 7.00659C17.7769 6.96529 17.3754 6.924 16.9656 6.88275C17.0142 7.25859 17.0142 7.6379 16.9656 8.01375C17.3755 7.97254 17.777 7.93125 18.1791 7.8899C18.1377 8.29204 18.0964 8.69358 18.0552 9.1034C18.4311 9.05479 18.8103 9.05479 19.1862 9.1034C19.145 8.69358 19.1037 8.292 19.0623 7.8899C19.4645 7.9312 19.866 7.9725 20.2758 8.01375C20.2273 7.6379 20.2273 7.25854 20.2758 6.88275Z" fill="#FF4B55"/>
<path d="M7.03463 15.9863C6.62476 16.0275 6.22322 16.0688 5.82113 16.1101C5.86247 15.708 5.90372 15.3064 5.94502 14.8966C5.56913 14.9452 5.18987 14.9452 4.81397 14.8966C4.85518 15.3064 4.89647 15.708 4.93787 16.1101C4.53572 16.0688 4.13415 16.0275 3.72437 15.9863C3.77297 16.3621 3.77297 16.7414 3.72437 17.1173C4.13424 17.0761 4.53577 17.0348 4.93787 16.9934C4.89652 17.3956 4.85522 17.7971 4.81397 18.2069C5.18987 18.1583 5.56913 18.1583 5.94502 18.2069C5.90382 17.7971 5.86247 17.3955 5.82113 16.9934C6.22327 17.0347 6.6248 17.076 7.03463 17.1173C6.98602 16.7415 6.98602 16.3621 7.03463 15.9863Z" fill="#FF4B55"/>
<path d="M20.2758 15.9863C19.866 16.0275 19.4644 16.0688 19.0623 16.1101C19.1037 15.708 19.1449 15.3064 19.1862 14.8966C18.8103 14.9452 18.4311 14.9452 18.0552 14.8966C18.0964 15.3064 18.1377 15.708 18.1791 16.1101C17.7769 16.0688 17.3754 16.0275 16.9656 15.9863C17.0142 16.3621 17.0142 16.7414 16.9656 17.1173C17.3755 17.0761 17.777 17.0348 18.1791 16.9934C18.1377 17.3956 18.0964 17.7971 18.0552 18.2069C18.4311 18.1583 18.8103 18.1583 19.1862 18.2069C19.145 17.7971 19.1037 17.3955 19.0623 16.9934C19.4645 17.0347 19.866 17.076 20.2758 17.1173C20.2273 16.7415 20.2273 16.3621 20.2758 15.9863Z" fill="#FF4B55"/>
</svg>
