<svg width="24" height="24" viewBox="0 0 24 24" fill="none" xmlns="http://www.w3.org/2000/svg">
<g clip-path="url(#clip0_1_6420)">
<path d="M22.2026 4.13794H1.79743C0.804705 4.13794 0 4.94264 0 5.93532V18.0646C0 19.0573 0.804705 19.862 1.79743 19.862H22.2026C23.1952 19.862 24 19.0573 24 18.0646V5.93532C24 4.94264 23.1952 4.13794 22.2026 4.13794Z" fill="#FF4B55"/>
<path d="M14.3187 12.1303C14.2137 12.04 14.0947 11.9743 13.9752 11.9263C14.6506 11.7931 15.1938 11.2224 15.1938 11.2224C14.8654 11.3664 14.7128 11.3956 14.1902 11.2238C14.0587 11.1806 13.9236 11.1654 13.7948 11.1668C14.3678 10.7852 14.6513 10.0502 14.6513 10.0502C14.4031 10.3089 14.2732 10.3943 13.7247 10.4356C13.5866 10.446 13.456 10.4837 13.3375 10.5343C13.7209 9.96252 13.7015 9.17483 13.7015 9.17483C13.5712 9.50887 13.4839 9.63744 12.9929 9.88546C12.8693 9.9479 12.763 10.0328 12.6729 10.1248C12.8083 9.4498 12.489 8.72961 12.489 8.72961C12.4964 9.08807 12.4649 9.24027 12.1063 9.65741C12.016 9.76237 11.9503 9.88143 11.9023 10.0009C11.7691 9.32549 11.1984 8.7823 11.1984 8.7823C11.3424 9.11066 11.3716 9.26329 11.1998 9.7859C11.1566 9.91738 11.1414 10.0525 11.1428 10.1813C10.7612 9.60829 10.0262 9.32479 10.0262 9.32479C10.2849 9.57299 10.3703 9.70288 10.4116 10.2514C10.422 10.3895 10.4597 10.5201 10.5102 10.6386C9.93838 10.2552 9.15083 10.2746 9.15083 10.2746C9.48486 10.4049 9.61344 10.4922 9.86146 10.9832C9.9239 11.1067 10.0088 11.213 10.1008 11.3032C9.4258 11.1677 8.70557 11.4871 8.70557 11.4871C9.06407 11.4796 9.21622 11.5111 9.63337 11.8698C9.73832 11.9601 9.85738 12.0257 9.97687 12.0738C9.30144 12.207 8.75825 12.7777 8.75825 12.7777C9.08661 12.6337 9.23924 12.6045 9.76185 12.7762C9.89338 12.8195 10.0285 12.8347 10.1573 12.8333C9.58429 13.2148 9.30074 13.9499 9.30074 13.9499C9.54894 13.6912 9.67883 13.6058 10.2274 13.5645C10.3654 13.5541 10.4961 13.5164 10.6145 13.4659C10.2311 14.0377 10.2505 14.8253 10.2505 14.8253C10.3808 14.4912 10.4681 14.3627 10.9591 14.1146C11.0827 14.0522 11.189 13.9673 11.2791 13.8753C11.1437 14.5503 11.463 15.2705 11.463 15.2705C11.4556 14.912 11.4871 14.7599 11.8457 14.3427C11.936 14.2378 12.0017 14.1187 12.0498 13.9992C12.1829 14.6746 12.7537 15.2178 12.7537 15.2178C12.6096 14.8895 12.5804 14.7368 12.7522 14.2142C12.7954 14.0827 12.8106 13.9476 12.8092 13.8188C13.1908 14.3918 13.9258 14.6753 13.9258 14.6753C13.6671 14.4271 13.5817 14.2972 13.5404 13.7487C13.53 13.6107 13.4923 13.48 13.4418 13.3616C14.0136 13.745 14.8012 13.7256 14.8012 13.7256C14.4672 13.5952 14.3386 13.508 14.0905 13.017C14.0281 12.8934 13.9432 12.7871 13.8512 12.697C14.5262 12.8324 15.2464 12.513 15.2464 12.513C14.888 12.5204 14.7358 12.489 14.3187 12.1303Z" fill="#FFE15A"/>
<path d="M13.6597 12.3302L15.3103 12L13.6597 11.6699L15.0584 10.7332L13.407 11.0598L14.3408 9.65921L12.9402 10.593L13.2669 8.94165L12.3302 10.3403L12 8.6897L11.6699 10.3404L10.7333 8.9417L11.0599 10.5931L9.65931 9.65926L10.5931 11.0599L8.94174 10.7333L10.3404 11.6699L8.6897 12L10.3404 12.3302L8.94165 13.2668L10.593 12.9401L9.65921 14.3408L11.0598 13.407L10.7332 15.0583L11.6698 13.6597L12 15.3103L12.3302 13.6597L13.2668 15.0583L12.9401 13.407L14.3408 14.3408L13.407 12.9401L15.0583 13.2668L13.6597 12.3302Z" fill="#FFD25A"/>
<path d="M12.0001 13.6552C12.9142 13.6552 13.6553 12.9141 13.6553 12C13.6553 11.0859 12.9142 10.3448 12.0001 10.3448C11.086 10.3448 10.345 11.0859 10.345 12C10.345 12.9141 11.086 13.6552 12.0001 13.6552Z" fill="#FFE15A"/>
<path d="M4.79368 16.9656C5.99415 16.9656 5.99415 17.3794 7.19467 17.3794C8.39603 17.3794 8.39603 16.9656 9.5973 16.9656C10.7986 16.9656 10.7987 17.3794 11.9999 17.3794C13.1986 17.3794 13.1986 16.9656 14.3973 16.9656C15.5966 16.9656 15.5966 17.3794 16.7958 17.3794C17.9956 17.3794 17.9956 16.9656 19.1954 16.9656C20.3952 16.9656 20.3952 17.3794 21.5949 17.3794C22.7947 17.3794 22.7947 16.9656 23.9946 16.9656C23.9965 16.9656 23.9981 16.9657 24 16.9657V15.7243C23.9981 15.7243 23.9965 15.7242 23.9946 15.7242C22.7947 15.7242 22.7947 16.1381 21.5949 16.1381C20.3952 16.1381 20.3952 15.7242 19.1954 15.7242C17.9956 15.7242 17.9956 16.1381 16.7958 16.1381C15.5965 16.1381 15.5965 15.7242 14.3973 15.7242C13.1986 15.7242 13.1986 16.1381 11.9999 16.1381C10.7986 16.1381 10.7986 15.7242 9.5973 15.7242C8.39603 15.7242 8.39594 16.1381 7.19467 16.1381C5.99415 16.1381 5.99415 15.7242 4.79368 15.7242C3.59424 15.7242 3.59424 16.1381 2.39475 16.1381C1.19658 16.1381 1.19433 15.7257 0 15.7244V16.9658C1.19438 16.9671 1.19658 17.3794 2.39475 17.3794C3.59424 17.3794 3.59424 16.9656 4.79368 16.9656Z" fill="#41479B"/>
<path d="M0 14.4829C1.19438 14.4842 1.19658 14.8965 2.39475 14.8965C3.59424 14.8965 3.59424 14.4827 4.79368 14.4827C5.99415 14.4827 5.99415 14.8965 7.19467 14.8965C8.39603 14.8965 8.39603 14.4827 9.5973 14.4827C10.7986 14.4827 10.7987 14.8965 11.9999 14.8965C13.1986 14.8965 13.1986 14.4827 14.3973 14.4827C15.5966 14.4827 15.5966 14.8965 16.7958 14.8965C17.9956 14.8965 17.9956 14.4827 19.1954 14.4827C20.3952 14.4827 20.3952 14.8965 21.5949 14.8965C22.7947 14.8965 22.7947 14.4827 23.9946 14.4827C23.9965 14.4827 23.9981 14.4828 24 14.4828V13.2414C23.9981 13.2414 23.9965 13.2413 23.9946 13.2413C22.7947 13.2413 22.7947 13.6551 21.5949 13.6551C20.3952 13.6551 20.3952 13.2413 19.1954 13.2413C17.9956 13.2413 17.9956 13.6551 16.7958 13.6551C15.5965 13.6551 15.5965 13.2413 14.3973 13.2413C13.1986 13.2413 13.1986 13.6551 11.9999 13.6551C10.7986 13.6551 10.7986 13.2413 9.5973 13.2413C8.39603 13.2413 8.39594 13.6551 7.19467 13.6551C5.99415 13.6551 5.99415 13.2413 4.79368 13.2413C3.59424 13.2413 3.59424 13.6551 2.39475 13.6551C1.19658 13.6551 1.19433 13.2428 0 13.2415L0 14.4829Z" fill="#41479B"/>
<path d="M0 18.2069C1.19438 18.2082 1.19658 18.6205 2.39475 18.6205C3.59424 18.6205 3.59424 18.2067 4.79368 18.2067C5.99415 18.2067 5.99415 18.6205 7.19467 18.6205C8.39603 18.6205 8.39603 18.2067 9.5973 18.2067C10.7986 18.2067 10.7987 18.6205 11.9999 18.6205C13.1986 18.6205 13.1986 18.2067 14.3973 18.2067C15.5966 18.2067 15.5966 18.6205 16.7958 18.6205C17.9956 18.6205 17.9956 18.2067 19.1954 18.2067C20.3952 18.2067 20.3952 18.6205 21.5949 18.6205C22.7947 18.6205 22.7947 18.2067 23.9946 18.2067C23.9965 18.2067 23.9981 18.2068 24 18.2068V16.9654C23.9981 16.9654 23.9965 16.9653 23.9946 16.9653C22.7947 16.9653 22.7947 17.3791 21.5949 17.3791C20.3952 17.3791 20.3952 16.9653 19.1954 16.9653C17.9956 16.9653 17.9956 17.3791 16.7958 17.3791C15.5965 17.3791 15.5965 16.9653 14.3973 16.9653C13.1986 16.9653 13.1986 17.3791 11.9999 17.3791C10.7986 17.3791 10.7986 16.9653 9.5973 16.9653C8.39603 16.9653 8.39594 17.3791 7.19467 17.3791C5.99415 17.3791 5.99415 16.9653 4.79368 16.9653C3.59424 16.9653 3.59424 17.3791 2.39475 17.3791C1.19658 17.3791 1.19433 16.9668 0 16.9655L0 18.2069Z" fill="#F5F5F5"/>
<path d="M0 15.7242C1.19438 15.7256 1.19658 16.1379 2.39475 16.1379C3.59424 16.1379 3.59424 15.7241 4.79368 15.7241C5.99415 15.7241 5.99415 16.1379 7.19467 16.1379C8.39603 16.1379 8.39603 15.7241 9.5973 15.7241C10.7986 15.7241 10.7987 16.1379 11.9999 16.1379C13.1986 16.1379 13.1986 15.7241 14.3973 15.7241C15.5966 15.7241 15.5966 16.1379 16.7958 16.1379C17.9956 16.1379 17.9956 15.7241 19.1954 15.7241C20.3952 15.7241 20.3952 16.1379 21.5949 16.1379C22.7947 16.1379 22.7947 15.7241 23.9946 15.7241C23.9965 15.7241 23.9981 15.7242 24 15.7242V14.4828C23.9981 14.4828 23.9965 14.4827 23.9946 14.4827C22.7947 14.4827 22.7947 14.8965 21.5949 14.8965C20.3952 14.8965 20.3952 14.4827 19.1954 14.4827C17.9956 14.4827 17.9956 14.8965 16.7958 14.8965C15.5965 14.8965 15.5965 14.4827 14.3973 14.4827C13.1986 14.4827 13.1986 14.8965 11.9999 14.8965C10.7986 14.8965 10.7986 14.4827 9.5973 14.4827C8.39603 14.4827 8.39594 14.8965 7.19467 14.8965C5.99415 14.8965 5.99415 14.4827 4.79368 14.4827C3.59424 14.4827 3.59424 14.8965 2.39475 14.8965C1.19658 14.8965 1.19433 14.4841 0 14.4828L0 15.7242Z" fill="#F5F5F5"/>
<path d="M0 13.2414C1.19438 13.2427 1.19658 13.655 2.39475 13.655C3.59424 13.655 3.59424 13.2412 4.79368 13.2412C5.99415 13.2412 5.99415 13.655 7.19467 13.655C8.39603 13.655 8.39603 13.2412 9.5973 13.2412C10.7986 13.2412 10.7987 13.655 11.9999 13.655C13.1986 13.655 13.1986 13.2412 14.3973 13.2412C15.5966 13.2412 15.5966 13.655 16.7958 13.655C17.9956 13.655 17.9956 13.2412 19.1954 13.2412C20.3952 13.2412 20.3952 13.655 21.5949 13.655C22.7947 13.655 22.7947 13.2412 23.9946 13.2412C23.9965 13.2412 23.9981 13.2413 24 13.2413V12C23.9981 12 23.9965 11.9999 23.9946 11.9999C22.7947 11.9999 22.7947 12.4137 21.5949 12.4137C20.3952 12.4137 20.3952 11.9999 19.1954 11.9999C17.9956 11.9999 17.9956 12.4137 16.7958 12.4137C15.5965 12.4137 15.5965 11.9999 14.3973 11.9999C13.1986 11.9999 13.1986 12.4137 11.9999 12.4137C10.7986 12.4137 10.7986 11.9999 9.5973 11.9999C8.39603 11.9999 8.39594 12.4137 7.19467 12.4137C5.99415 12.4137 5.99415 11.9999 4.79368 11.9999C3.59424 11.9999 3.59424 12.4137 2.39475 12.4137C1.19658 12.4137 1.19433 12.0013 0 12L0 13.2414Z" fill="#F5F5F5"/>
<path d="M21.5951 18.6207C20.3954 18.6207 20.3954 18.2069 19.1956 18.2069C17.9957 18.2069 17.9957 18.6207 16.796 18.6207C15.5967 18.6207 15.5967 18.2069 14.3974 18.2069C13.1988 18.2069 13.1988 18.6207 12.0001 18.6207C10.7988 18.6207 10.7988 18.2069 9.59751 18.2069C8.39614 18.2069 8.39615 18.6207 7.19488 18.6207C5.99436 18.6207 5.99436 18.2069 4.79389 18.2069C3.5944 18.2069 3.5944 18.6207 2.39496 18.6207C1.1989 18.6207 1.1944 18.2099 0.00634766 18.2071C0.0789572 19.1332 0.852865 19.8621 1.79754 19.8621H22.2027C23.1474 19.8621 23.9214 19.1331 23.994 18.207C22.795 18.2071 22.7947 18.6207 21.5951 18.6207Z" fill="#41479B"/>
<path d="M12.8616 6.33583C14.8738 6.25801 15.8966 5.37976 15.8966 5.37976C15.7521 5.43531 13.4953 5.62431 12.8505 5.6799C12.4433 5.71496 11.9353 6.17926 11.6154 6.51733C11.5292 6.28323 11.3608 6.04042 11.0273 5.9912C10.3492 5.89117 8.54817 5.78003 8.10352 5.56871C8.10352 5.56871 8.39053 6.01239 9.87394 6.21353C10.5847 6.3099 10.9765 6.55365 11.1631 6.71959L10.994 6.71378C10.994 6.71378 10.994 6.71378 10.7049 6.56922C10.4159 6.4247 10.1268 6.66925 10.1268 6.66925H9.66643C9.60877 6.66925 9.57586 6.73511 9.61046 6.78119L9.65475 6.84025C9.69994 6.90058 9.77096 6.93606 9.84633 6.93606H10.3158C10.4826 7.22509 11.1162 7.52528 11.6387 7.52528C12.1612 7.52528 13.7621 6.81381 13.9178 6.81381L12.4696 6.76426L12.8616 6.33583Z" fill="#FFE15A"/>
</g>
<defs>
<clipPath id="clip0_1_6420">
<rect width="24" height="24" fill="white"/>
</clipPath>
</defs>
</svg>
