<svg width="24" height="24" viewBox="0 0 24 24" fill="none" xmlns="http://www.w3.org/2000/svg">
<path d="M22.2026 4.13782H16V19.8619H22.2026C23.1953 19.8619 24 19.0572 24 18.0645V5.93524C24 4.94252 23.1953 4.13782 22.2026 4.13782Z" fill="#FF4B55"/>
<path d="M16.0004 4.13794H8.00024V19.8622H16.0004V4.13794Z" fill="#41479B"/>
<path d="M1.79742 4.13782C0.804703 4.13782 0 4.94252 0 5.93524V18.0646C0 19.0572 0.804703 19.862 1.79742 19.862H8.00002V4.13782H1.79742Z" fill="#FF4B55"/>
<path d="M4.01667 10.6418C3.39131 10.6418 2.85529 10.265 2.61914 9.72681C2.619 9.73501 2.6167 9.74265 2.6167 9.75085C2.6167 10.524 3.24351 11.1508 4.01667 11.1508C4.78982 11.1508 5.41659 10.524 5.41659 9.75085C5.41659 9.74265 5.41429 9.73501 5.41415 9.72685C5.178 10.265 4.64198 10.6418 4.01667 10.6418Z" fill="#F9CF02"/>
<path d="M4.01666 10.3873C4.57896 10.3873 5.03479 9.93149 5.03479 9.3692C5.03479 8.8069 4.57896 8.35107 4.01666 8.35107C3.45437 8.35107 2.99854 8.8069 2.99854 9.3692C2.99854 9.93149 3.45437 10.3873 4.01666 10.3873Z" fill="#F9CF02"/>
<path d="M3.38037 7.46015C3.38037 7.81157 3.66528 8.09648 4.0167 8.09648C4.36812 8.09648 4.65303 7.81157 4.65303 7.46015C4.65303 7.20562 4.49393 7.17379 4.49393 7.07835C4.49393 6.98292 4.58937 6.85565 4.3985 6.69656C4.49393 6.85565 4.33489 6.88748 4.33489 7.04652C4.33489 7.20557 4.3985 7.20562 4.3985 7.33288C4.3985 7.4032 4.3415 7.4601 4.27128 7.4601C4.20097 7.4601 4.14406 7.4031 4.14406 7.33288C4.14406 7.20567 4.27128 7.07835 4.27128 6.88743C4.27128 6.69651 4.23945 6.6329 4.14406 6.47381C4.04862 6.31471 3.88953 6.18745 4.01684 6.06018C3.82592 6.12379 3.9214 6.37832 3.9214 6.53746C3.9214 6.69656 3.79418 6.79199 3.79418 6.98291C3.79418 7.17384 3.88962 7.20562 3.88962 7.33288C3.88962 7.4032 3.83262 7.4601 3.7624 7.4601C3.69218 7.4601 3.63518 7.4031 3.63518 7.33288C3.63518 7.20567 3.69879 7.20567 3.69879 7.04652C3.69879 6.88738 3.5397 6.8556 3.63518 6.69656C3.44426 6.85565 3.53975 6.98292 3.53975 7.07835C3.53946 7.17379 3.38037 7.20557 3.38037 7.46015Z" fill="#F9CF02"/>
<path d="M1.2168 11.5104V17.4091C1.2168 17.4671 1.26386 17.5141 1.32184 17.5141H2.38436C2.44239 17.5141 2.48941 17.4671 2.48941 17.4091V11.5104C2.48941 11.4524 2.44234 11.4054 2.38436 11.4054H1.32184C1.26386 11.4053 1.2168 11.4524 1.2168 11.5104Z" fill="#F9CF02"/>
<path d="M5.54395 11.5104V17.4091C5.54395 17.4671 5.59101 17.5141 5.64899 17.5141H6.71151C6.76954 17.5141 6.81656 17.4671 6.81656 17.4091V11.5104C6.81656 11.4524 6.76949 11.4054 6.71151 11.4054H5.64899C5.59096 11.4053 5.54395 11.4524 5.54395 11.5104Z" fill="#F9CF02"/>
<path d="M2.7439 12.5285V12.8274C2.7439 12.8855 2.79096 12.9325 2.84894 12.9325H5.18412C5.24215 12.9325 5.28916 12.8854 5.28916 12.8274V12.5285C5.28916 12.4705 5.2421 12.4235 5.18412 12.4235H2.84894C2.79091 12.4235 2.7439 12.4705 2.7439 12.5285Z" fill="#F9CF02"/>
<path d="M2.7439 16.092V16.3909C2.7439 16.4489 2.79096 16.496 2.84894 16.496H5.18412C5.24215 16.496 5.28916 16.4489 5.28916 16.3909V16.092C5.28916 16.034 5.2421 15.9869 5.18412 15.9869H2.84894C2.79091 15.9869 2.7439 16.034 2.7439 16.092Z" fill="#F9CF02"/>
<path d="M2.93371 11.4054H5.09971C5.153 11.4054 5.17241 11.4756 5.12675 11.503L4.09785 12.1204C4.04793 12.1503 3.98554 12.1503 3.93571 12.1204L2.90671 11.503C2.861 11.4756 2.88046 11.4054 2.93371 11.4054Z" fill="#F9CF02"/>
<path d="M2.93372 16.7506H5.09972C5.15301 16.7506 5.17242 16.8208 5.12677 16.8482L4.09776 17.4655C4.04784 17.4955 3.98545 17.4955 3.93562 17.4655L2.90667 16.8482C2.86102 16.8207 2.88047 16.7506 2.93372 16.7506Z" fill="#F9CF02"/>
<path d="M4.14084 13.1971C4.10072 13.1932 4.06186 13.1849 4.02075 13.1849C3.32086 13.1849 2.75146 13.7543 2.75146 14.4542C2.75146 14.8696 2.95439 15.2352 3.26442 15.4659C3.30009 15.4925 3.34725 15.4541 3.3299 15.4131C3.29273 15.325 3.27182 15.2285 3.27182 15.1269C3.27182 14.7132 3.609 14.3768 4.02304 14.378C4.24068 14.3787 4.44932 14.2712 4.54565 14.076C4.74492 13.6724 4.50178 13.2712 4.14084 13.1971ZM4.02075 14.0353C3.88059 14.0353 3.76687 13.9217 3.76687 13.7815C3.76687 13.6413 3.88054 13.5276 4.02075 13.5276C4.1609 13.5276 4.27457 13.6413 4.27457 13.7815C4.27453 13.9217 4.1609 14.0353 4.02075 14.0353Z" fill="#F9CF02"/>
<path d="M4.77707 13.4425C4.7414 13.4159 4.69424 13.4543 4.71159 13.4953C4.74881 13.5834 4.76967 13.6799 4.76967 13.7815C4.76967 14.1952 4.43245 14.5316 4.01845 14.5304C3.80081 14.5297 3.59212 14.6372 3.49584 14.8324C3.29667 15.2361 3.53981 15.6373 3.90074 15.7113C3.94087 15.7152 3.97973 15.7235 4.02084 15.7235C4.72068 15.7235 5.29012 15.1541 5.29012 14.4542C5.29003 14.0388 5.0871 13.6732 4.77707 13.4425ZM4.02084 15.3808C3.88068 15.3808 3.76696 15.2671 3.76696 15.1269C3.76696 14.9867 3.88063 14.8731 4.02084 14.8731C4.16099 14.8731 4.27467 14.9867 4.27467 15.1269C4.27462 15.2671 4.16099 15.3808 4.02084 15.3808Z" fill="#F9CF02"/>
</svg>
