<svg width="24" height="24" viewBox="0 0 24 24" fill="none" xmlns="http://www.w3.org/2000/svg">
<path d="M22.2026 19.8621H1.79742C0.804703 19.8621 0 19.0574 0 18.0646V5.93536C0 4.94269 0.804703 4.13794 1.79742 4.13794H22.2026C23.1952 4.13794 24 4.94264 24 5.93536V18.0647C24 19.0574 23.1953 19.8621 22.2026 19.8621Z" fill="#41479B"/>
<path d="M16.574 11.899L15.3874 11.6353C15.2169 10.0455 13.9546 8.78381 12.3648 8.61323L12.1009 7.42589C12.0799 7.33134 11.9199 7.33134 11.8989 7.42589L11.6357 8.61042C10.0452 8.78053 8.78313 10.045 8.6126 11.6353L7.42577 11.899C7.37843 11.9095 7.34473 11.9516 7.34473 12C7.34473 12.0485 7.37843 12.0906 7.42573 12.1011L8.61255 12.3648C8.78304 13.9548 10.0452 15.2178 11.6353 15.3882L11.8989 16.5742C11.9094 16.6215 11.9515 16.6552 11.9999 16.6552C12.0484 16.6552 12.0904 16.6215 12.1009 16.5742L12.3649 15.3864C13.9545 15.2158 15.2169 13.9545 15.3874 12.3648L16.5741 12.1011C16.6214 12.0906 16.6551 12.0486 16.6551 12C16.6551 11.9515 16.6213 11.9095 16.574 11.899ZM15.1779 11.5887L12.9142 11.0857L12.4114 8.82333C13.8506 9.009 14.9924 10.1495 15.1779 11.5887ZM11.5884 8.82295L11.0855 11.0858L8.8226 11.5887C9.00823 10.1495 10.1493 9.00853 11.5884 8.82295ZM11.1394 11.2858L11.8536 12H7.92499L11.1394 11.2858ZM8.8227 12.4115L11.0856 12.9144L11.5886 15.1778C10.1493 14.9923 9.00823 13.8507 8.8227 12.4115ZM11.9999 16.0749L11.2856 12.8605L11.9999 12.1463V16.0749ZM11.9999 11.8537V7.92516L12.7142 11.1396L11.9999 11.8537ZM12.4118 15.175L12.9142 12.9143L15.1778 12.4113C14.9924 13.8502 13.8507 14.9891 12.4118 15.175ZM12.8604 12.7143L12.1462 12H16.0748L12.8604 12.7143Z" fill="#F5F5F5"/>
<path d="M6.62067 12.1034H0.827574C0.770434 12.1034 0.724121 12.0571 0.724121 11.9999C0.724121 11.9428 0.770434 11.8965 0.827574 11.8965H6.62067C6.67781 11.8965 6.72412 11.9428 6.72412 11.9999C6.72412 12.0571 6.67786 12.1034 6.62067 12.1034Z" fill="#F5F5F5"/>
<path d="M23.1724 12.1034H17.3793C17.3222 12.1034 17.2759 12.0571 17.2759 11.9999C17.2759 11.9428 17.3222 11.8965 17.3793 11.8965H23.1724C23.2296 11.8965 23.2759 11.9428 23.2759 11.9999C23.2759 12.0571 23.2296 12.1034 23.1724 12.1034Z" fill="#F5F5F5"/>
<path d="M11.9999 6.72412C11.9428 6.72412 11.8965 6.67781 11.8965 6.62067V4.96551C11.8965 4.90837 11.9428 4.86206 11.9999 4.86206C12.0571 4.86206 12.1034 4.90837 12.1034 4.96551V6.62067C12.1034 6.67786 12.0571 6.72412 11.9999 6.72412Z" fill="#F5F5F5"/>
<path d="M11.9999 19.1379C11.9428 19.1379 11.8965 19.0916 11.8965 19.0345V17.3793C11.8965 17.3222 11.9428 17.2759 11.9999 17.2759C12.0571 17.2759 12.1034 17.3222 12.1034 17.3793V19.0345C12.1034 19.0916 12.0571 19.1379 11.9999 19.1379Z" fill="#F5F5F5"/>
</svg>
