<svg width="24" height="24" viewBox="0 0 24 24" fill="none" xmlns="http://www.w3.org/2000/svg">
<path d="M22.2025 19.8621H1.79742C0.804703 19.8621 0 19.0573 0 18.0646V5.93536C0 4.94269 0.804703 4.13794 1.79742 4.13794H22.2025C23.1952 4.13794 24 4.94264 24 5.93536V18.0646C24 19.0573 23.1952 19.8621 22.2025 19.8621Z" fill="#F5F5F5"/>
<path d="M24 11.1724H12.8276V4.13794H11.1724V11.1724H0V12.8276H11.1724V19.8621H12.8276V12.8276H24V11.1724Z" fill="#FF4B55"/>
<path d="M7.74075 7.84472C7.81022 7.70574 7.42603 7.2556 7.44638 7.1536C7.46677 7.0516 7.51228 6.89531 7.34906 6.30375C7.18589 5.71219 6.69563 5.56927 6.10406 5.5081C5.5125 5.44692 4.73044 5.87114 4.55381 6.33422C4.44722 6.61369 4.51931 6.92588 4.63116 7.22302C4.58096 7.22845 4.48481 7.23122 4.41394 7.17886C4.3575 7.13681 4.32661 7.06538 4.32122 6.96689C4.30144 6.59175 4.5061 5.97727 4.5083 5.97122L4.52363 5.92533L3.88111 5.69874L3.91889 6.00024L3.4231 5.89439L3.45338 5.97755C3.49702 6.09741 3.88106 7.15106 3.93277 7.24411C4.01756 7.39613 4.13264 7.49339 4.27477 7.53291C4.32577 7.54725 4.37611 7.55269 4.42392 7.55269C4.43006 7.55269 4.43522 7.5511 4.44127 7.55091C4.41216 7.60449 4.35328 7.67203 4.20338 7.74169C4.0275 7.82274 3.84947 7.91011 3.82997 8.23838L3.82467 8.2411C3.82627 8.24414 3.8281 8.24578 3.82969 8.24878C3.82547 8.3355 3.82941 8.43464 3.85017 8.55919C3.90178 8.86706 4.00664 9.16922 4.01114 9.18192L4.02131 9.21094L4.05192 9.21446C4.05413 9.21446 4.25592 9.23864 4.31775 9.45061C4.35342 9.57328 4.46592 9.66642 4.57655 9.66642C4.57941 9.66642 4.58227 9.6661 4.58513 9.6661C4.63294 9.66389 4.74863 9.639 4.78622 9.4516L4.79166 9.4245L4.48777 9.14489L4.58963 8.80903L4.54116 8.79595C4.5383 8.79525 4.33706 8.73464 4.12875 8.50749C4.10944 8.41392 4.11174 8.34633 4.13667 8.30799C4.16503 8.26496 4.22527 8.25286 4.29506 8.23885C4.36008 8.22577 4.42735 8.21241 4.48186 8.16999C4.65703 8.03306 4.75505 7.79761 4.80474 7.63641C4.83164 7.69735 4.85742 7.75655 4.88025 7.81299C5.05364 8.24138 4.5743 8.73089 4.5743 8.73089C4.88025 8.85328 4.91086 8.92463 5.33925 9.45502C5.76764 9.98541 6.15516 9.76097 6.15516 9.76097C6.15516 9.76097 6.10003 9.42141 6.38156 9.27806C6.66314 9.13472 6.66952 8.95045 6.66952 8.95045C7.37217 9.11555 7.41441 8.8276 7.38366 8.72775C7.35295 8.62795 7.39135 8.47055 7.39135 8.47055C7.39135 8.47055 7.46213 8.475 7.5142 8.43985C7.59675 8.3842 7.54111 8.25174 7.54111 8.25174C7.62174 8.2133 7.65249 8.12888 7.59103 8.06358C7.52958 7.99828 7.53342 7.92539 7.53342 7.92539C7.53342 7.92539 7.69472 7.93683 7.74075 7.84472ZM4.30116 7.4385C4.18514 7.40635 4.08985 7.32469 4.01813 7.1963C3.98405 7.13513 3.74527 6.49224 3.57544 6.02691L3.93174 6.10285L3.99872 6.63755L4.09561 6.62545L3.99774 5.84396L4.40063 5.9858C4.35216 6.13913 4.20558 6.63535 4.22372 6.97191C4.23038 7.101 4.27472 7.19691 4.35535 7.25714C4.42833 7.31166 4.51599 7.32436 4.58292 7.32436C4.62239 7.32436 4.64925 7.32052 4.66739 7.31733C4.67738 7.34189 4.68769 7.36603 4.69796 7.39031C4.64138 7.41816 4.47539 7.48791 4.30116 7.4385ZM4.68399 9.45853C4.6703 9.50663 4.64128 9.5656 4.58077 9.56817C4.57946 9.56817 4.57791 9.56817 4.57631 9.56817C4.5097 9.56817 4.4348 9.50283 4.4115 9.42314C4.41033 9.41906 4.40789 9.41695 4.40658 9.41297L4.45627 9.24891L4.68399 9.45853ZM4.46789 8.874L4.34339 9.28383C4.26267 9.17424 4.14947 9.13547 4.09467 9.12267C4.06786 9.04205 3.98822 8.79085 3.94678 8.54325C3.93811 8.49094 3.93385 8.44641 3.92986 8.40244C4.13611 8.70431 4.36861 8.83458 4.46789 8.874ZM4.42163 8.09283C4.38563 8.12086 4.33242 8.13141 4.27599 8.14285C4.19597 8.15878 4.10583 8.17692 4.05483 8.25441C4.03622 8.28277 4.02699 8.3183 4.02225 8.35786C3.98972 8.31188 3.95639 8.27297 3.92592 8.217C3.94749 7.96772 4.08314 7.90463 4.24444 7.83014C4.47699 7.72252 4.53094 7.60781 4.55396 7.53928C4.63683 7.52311 4.69894 7.49742 4.73578 7.47999C4.73761 7.48421 4.73944 7.48814 4.74131 7.49241C4.71567 7.60547 4.62746 7.9321 4.42163 8.09283ZM4.96861 7.65272L4.76897 7.22269L7.11881 6.13224C7.27242 6.42408 7.2878 6.7696 7.2878 6.7696L4.96861 7.65272Z" fill="#464655"/>
<path d="M20.5684 7.84472C20.6379 7.70574 20.2537 7.2556 20.274 7.1536C20.2944 7.0516 20.3399 6.89531 20.1767 6.30375C20.0135 5.71219 19.5233 5.56927 18.9317 5.5081C18.3401 5.44692 17.5581 5.87114 17.3815 6.33422C17.2749 6.61369 17.3469 6.92588 17.4588 7.22302C17.4086 7.22846 17.3125 7.23122 17.2416 7.17886C17.1851 7.13681 17.1542 7.06538 17.1489 6.96689C17.1291 6.59175 17.3337 5.97727 17.3359 5.97122L17.3513 5.92533L16.7087 5.69874L16.7465 6.00024L16.2507 5.89439L16.281 5.97755C16.3247 6.09741 16.7087 7.15107 16.7604 7.24411C16.8452 7.39613 16.9603 7.49339 17.1024 7.53291C17.1534 7.54725 17.2038 7.55269 17.2516 7.55269C17.2577 7.55269 17.2629 7.5511 17.2689 7.55091C17.2398 7.60449 17.1809 7.67203 17.031 7.74169C16.8551 7.82274 16.6771 7.91011 16.6576 8.23838L16.6523 8.2411C16.6539 8.24414 16.6557 8.24578 16.6573 8.24878C16.6531 8.3355 16.657 8.43464 16.6778 8.55919C16.7294 8.86706 16.8343 9.16922 16.8388 9.18192L16.849 9.21094L16.8796 9.21446C16.8818 9.21446 17.0836 9.23864 17.1454 9.45061C17.1811 9.57328 17.2936 9.66642 17.4042 9.66642C17.407 9.66642 17.4099 9.6661 17.4128 9.6661C17.4606 9.66389 17.5763 9.639 17.6139 9.4516L17.6193 9.4245L17.3154 9.14489L17.4173 8.80903L17.3688 8.79595C17.3659 8.79525 17.1647 8.73464 16.9564 8.50749C16.9371 8.41392 16.9394 8.34633 16.9643 8.30799C16.9927 8.26496 17.0529 8.25286 17.1227 8.23885C17.1877 8.22577 17.255 8.21241 17.3095 8.16999C17.4847 8.03307 17.5827 7.79761 17.6324 7.63641C17.6593 7.69735 17.6851 7.75655 17.7079 7.81299C17.8813 8.24138 17.4019 8.73089 17.4019 8.73089C17.7079 8.85328 17.7385 8.92463 18.1669 9.45502C18.5953 9.98536 18.9828 9.76097 18.9828 9.76097C18.9828 9.76097 18.9277 9.42141 19.2092 9.27806C19.4908 9.13472 19.4972 8.95046 19.4972 8.95046C20.1999 9.11555 20.2421 8.8276 20.2113 8.72775C20.1806 8.62795 20.219 8.47055 20.219 8.47055C20.219 8.47055 20.2898 8.475 20.3419 8.43985C20.4244 8.38421 20.3688 8.25174 20.3688 8.25174C20.4494 8.2133 20.4802 8.12888 20.4187 8.06358C20.3573 7.99828 20.3611 7.92539 20.3611 7.92539C20.3611 7.92539 20.5223 7.93683 20.5684 7.84472ZM17.1287 7.4385C17.0127 7.40635 16.9174 7.32469 16.8457 7.1963C16.8116 7.13513 16.5729 6.49224 16.403 6.02691L16.7593 6.10285L16.8263 6.63755L16.9232 6.62546L16.8253 5.84396L17.2282 5.9858C17.1797 6.13913 17.0332 6.63535 17.0513 6.97191C17.058 7.101 17.1023 7.19691 17.1829 7.25714C17.2559 7.31166 17.3436 7.32436 17.4105 7.32436C17.45 7.32436 17.4768 7.32052 17.495 7.31733C17.505 7.34189 17.5153 7.36603 17.5255 7.39031C17.4689 7.41816 17.303 7.48791 17.1287 7.4385ZM17.5115 9.45853C17.4978 9.50663 17.4688 9.5656 17.4083 9.56817C17.407 9.56817 17.4054 9.56817 17.4039 9.56817C17.3372 9.56817 17.2623 9.50283 17.239 9.42314C17.2379 9.41906 17.2354 9.41696 17.2341 9.41297L17.2838 9.24891L17.5115 9.45853ZM17.2954 8.874L17.1709 9.28383C17.0902 9.17424 16.977 9.13547 16.9222 9.12267C16.8954 9.04205 16.8158 8.79085 16.7743 8.54325C16.7657 8.49094 16.7614 8.44641 16.7574 8.40244C16.9637 8.70431 17.1962 8.83458 17.2954 8.874ZM17.2493 8.09283C17.2133 8.12086 17.1601 8.13141 17.1036 8.14285C17.0236 8.15878 16.9335 8.17692 16.8825 8.25441C16.8639 8.28277 16.8546 8.3183 16.8499 8.35786C16.8174 8.31188 16.784 8.27297 16.7536 8.217C16.7751 7.96772 16.9108 7.90463 17.0721 7.83014C17.3046 7.72252 17.3586 7.60782 17.3816 7.53928C17.4645 7.52311 17.5266 7.49742 17.5634 7.47999C17.5652 7.48421 17.5671 7.48814 17.569 7.49241C17.5433 7.60547 17.455 7.9321 17.2493 8.09283ZM17.7962 7.65272L17.5966 7.22269L19.9464 6.13224C20.1 6.42408 20.1154 6.7696 20.1154 6.7696L17.7962 7.65272Z" fill="#464655"/>
<path d="M7.74075 16.5344C7.81022 16.3954 7.42603 15.9453 7.44638 15.8433C7.46677 15.7413 7.51228 15.585 7.34906 14.9934C7.18589 14.4019 6.69563 14.259 6.10406 14.1978C5.5125 14.1366 4.73044 14.5608 4.55381 15.0239C4.44722 15.3034 4.51931 15.6156 4.63116 15.9127C4.58096 15.9182 4.48481 15.9209 4.41394 15.8686C4.3575 15.8265 4.32661 15.7551 4.32122 15.6566C4.30144 15.2814 4.5061 14.667 4.5083 14.6609L4.52363 14.615L3.88111 14.3884L3.91889 14.6899L3.4231 14.5841L3.45338 14.6672C3.49702 14.7871 3.88106 15.8408 3.93277 15.9338C4.01756 16.0858 4.13264 16.1831 4.27477 16.2226C4.32577 16.237 4.37611 16.2424 4.42392 16.2424C4.43006 16.2424 4.43522 16.2408 4.44127 16.2406C4.41216 16.2942 4.35328 16.3617 4.20338 16.4313C4.0275 16.5124 3.84947 16.5998 3.82997 16.928L3.82467 16.9308C3.82627 16.9338 3.8281 16.9355 3.82969 16.9385C3.82547 17.0252 3.82941 17.1243 3.85017 17.2489C3.90178 17.5568 4.00664 17.8589 4.01114 17.8716L4.02131 17.9006L4.05192 17.9042C4.05413 17.9042 4.25592 17.9283 4.31775 18.1403C4.35342 18.263 4.46592 18.3561 4.57655 18.3561C4.57941 18.3561 4.58227 18.3558 4.58513 18.3558C4.63294 18.3536 4.74863 18.3287 4.78622 18.1413L4.79166 18.1142L4.48777 17.8346L4.58963 17.4987L4.54116 17.4857C4.5383 17.485 4.33706 17.4243 4.12875 17.1972C4.10944 17.1036 4.11174 17.036 4.13667 16.9977C4.16503 16.9547 4.22527 16.9426 4.29506 16.9285C4.36008 16.9155 4.42735 16.9021 4.48186 16.8597C4.65703 16.7228 4.75505 16.4873 4.80474 16.3261C4.83164 16.387 4.85742 16.4462 4.88025 16.5027C5.05364 16.9311 4.5743 17.4206 4.5743 17.4206C4.88025 17.543 4.91086 17.6143 5.33925 18.1447C5.76764 18.6751 6.15516 18.4507 6.15516 18.4507C6.15516 18.4507 6.10003 18.1111 6.38156 17.9678C6.66314 17.8244 6.66952 17.6402 6.66952 17.6402C7.37217 17.8052 7.41441 17.5173 7.38366 17.4174C7.35295 17.3177 7.39135 17.1602 7.39135 17.1602C7.39135 17.1602 7.46213 17.1647 7.5142 17.1295C7.59675 17.0739 7.54111 16.9414 7.54111 16.9414C7.62174 16.903 7.65249 16.8186 7.59103 16.7533C7.52958 16.688 7.53342 16.6151 7.53342 16.6151C7.53342 16.6151 7.69472 16.6265 7.74075 16.5344ZM4.30116 16.1282C4.18514 16.096 4.08985 16.0144 4.01813 15.886C3.98405 15.8248 3.74527 15.1819 3.57544 14.7166L3.93174 14.7925L3.99872 15.3272L4.09561 15.3152L3.99774 14.5337L4.40063 14.6755C4.35216 14.8288 4.20558 15.325 4.22372 15.6616C4.23038 15.7907 4.27472 15.8866 4.35535 15.9469C4.42833 16.0014 4.51599 16.0141 4.58292 16.0141C4.62239 16.0141 4.64925 16.0103 4.66739 16.0071C4.67738 16.0316 4.68769 16.0558 4.69796 16.0801C4.64138 16.1078 4.47539 16.1776 4.30116 16.1282ZM4.68399 18.1482C4.6703 18.1963 4.64128 18.2553 4.58077 18.2579C4.57946 18.2579 4.57791 18.2579 4.57631 18.2579C4.5097 18.2579 4.4348 18.1925 4.4115 18.1128C4.41033 18.1088 4.40789 18.1067 4.40658 18.1027L4.45627 17.9386L4.68399 18.1482ZM4.46789 17.5637L4.34339 17.9735C4.26267 17.8639 4.14947 17.8252 4.09467 17.8124C4.06786 17.7317 3.98822 17.4805 3.94678 17.2329C3.93811 17.1806 3.93385 17.1361 3.92986 17.0921C4.13611 17.394 4.36861 17.5243 4.46789 17.5637ZM4.42163 16.7826C4.38563 16.8106 4.33242 16.8212 4.27599 16.8326C4.19597 16.8485 4.10583 16.8667 4.05483 16.9442C4.03622 16.9725 4.02699 17.008 4.02225 17.0476C3.98972 17.0016 3.95639 16.9627 3.92592 16.9067C3.94749 16.6575 4.08314 16.5944 4.24444 16.5199C4.47699 16.4123 4.53094 16.2976 4.55396 16.229C4.63683 16.2129 4.69894 16.1872 4.73578 16.1697C4.73761 16.174 4.73944 16.1779 4.74131 16.1822C4.71567 16.2952 4.62746 16.6218 4.42163 16.7826ZM4.96861 16.3424L4.76897 15.9124L7.11881 14.8219C7.27242 15.1138 7.2878 15.4593 7.2878 15.4593L4.96861 16.3424Z" fill="#464655"/>
<path d="M20.5684 16.5344C20.6379 16.3954 20.2537 15.9453 20.274 15.8433C20.2944 15.7413 20.3399 15.585 20.1767 14.9934C20.0135 14.4019 19.5233 14.259 18.9317 14.1978C18.3401 14.1366 17.5581 14.5608 17.3815 15.0239C17.2749 15.3034 17.3469 15.6156 17.4588 15.9127C17.4086 15.9182 17.3125 15.9209 17.2416 15.8686C17.1851 15.8265 17.1542 15.7551 17.1489 15.6566C17.1291 15.2814 17.3337 14.667 17.3359 14.6609L17.3513 14.615L16.7087 14.3884L16.7465 14.6899L16.2507 14.5841L16.281 14.6672C16.3247 14.7871 16.7087 15.8408 16.7604 15.9338C16.8452 16.0858 16.9603 16.1831 17.1024 16.2226C17.1534 16.237 17.2038 16.2424 17.2516 16.2424C17.2577 16.2424 17.2629 16.2408 17.2689 16.2406C17.2398 16.2942 17.1809 16.3617 17.031 16.4313C16.8551 16.5124 16.6771 16.5998 16.6576 16.928L16.6523 16.9308C16.6539 16.9338 16.6557 16.9355 16.6573 16.9385C16.6531 17.0252 16.657 17.1243 16.6778 17.2489C16.7294 17.5568 16.8343 17.8589 16.8388 17.8716L16.849 17.9006L16.8796 17.9042C16.8818 17.9042 17.0836 17.9283 17.1454 18.1403C17.1811 18.263 17.2936 18.3561 17.4042 18.3561C17.407 18.3561 17.4099 18.3558 17.4128 18.3558C17.4606 18.3536 17.5763 18.3287 17.6139 18.1413L17.6193 18.1142L17.3154 17.8346L17.4173 17.4987L17.3688 17.4857C17.3659 17.485 17.1647 17.4243 16.9564 17.1972C16.9371 17.1036 16.9394 17.036 16.9643 16.9977C16.9927 16.9547 17.0529 16.9426 17.1227 16.9285C17.1877 16.9155 17.255 16.9021 17.3095 16.8597C17.4847 16.7228 17.5827 16.4873 17.6324 16.3261C17.6593 16.387 17.6851 16.4462 17.7079 16.5027C17.8813 16.9311 17.4019 17.4206 17.4019 17.4206C17.7079 17.543 17.7385 17.6143 18.1669 18.1447C18.5953 18.6751 18.9828 18.4507 18.9828 18.4507C18.9828 18.4507 18.9277 18.1111 19.2092 17.9678C19.4908 17.8244 19.4972 17.6402 19.4972 17.6402C20.1999 17.8052 20.2421 17.5173 20.2113 17.4174C20.1806 17.3177 20.219 17.1602 20.219 17.1602C20.219 17.1602 20.2898 17.1647 20.3419 17.1295C20.4244 17.0739 20.3688 16.9414 20.3688 16.9414C20.4494 16.903 20.4802 16.8186 20.4187 16.7533C20.3573 16.688 20.3611 16.6151 20.3611 16.6151C20.3611 16.6151 20.5223 16.6265 20.5684 16.5344ZM17.1287 16.1282C17.0127 16.096 16.9174 16.0144 16.8457 15.886C16.8116 15.8248 16.5729 15.1819 16.403 14.7166L16.7593 14.7925L16.8263 15.3272L16.9232 15.3152L16.8253 14.5337L17.2282 14.6755C17.1797 14.8288 17.0332 15.325 17.0513 15.6616C17.058 15.7907 17.1023 15.8866 17.1829 15.9469C17.2559 16.0014 17.3436 16.0141 17.4105 16.0141C17.45 16.0141 17.4768 16.0103 17.495 16.0071C17.505 16.0316 17.5153 16.0558 17.5255 16.0801C17.4689 16.1078 17.303 16.1776 17.1287 16.1282ZM17.5115 18.1482C17.4978 18.1963 17.4688 18.2553 17.4083 18.2579C17.407 18.2579 17.4054 18.2579 17.4039 18.2579C17.3372 18.2579 17.2623 18.1925 17.239 18.1128C17.2379 18.1088 17.2354 18.1067 17.2341 18.1027L17.2838 17.9386L17.5115 18.1482ZM17.2954 17.5637L17.1709 17.9735C17.0902 17.8639 16.977 17.8252 16.9222 17.8124C16.8954 17.7317 16.8158 17.4805 16.7743 17.2329C16.7657 17.1806 16.7614 17.1361 16.7574 17.0921C16.9637 17.394 17.1962 17.5243 17.2954 17.5637ZM17.2493 16.7826C17.2133 16.8106 17.1601 16.8212 17.1036 16.8326C17.0236 16.8485 16.9335 16.8667 16.8825 16.9442C16.8639 16.9725 16.8546 17.008 16.8499 17.0476C16.8174 17.0016 16.784 16.9627 16.7536 16.9067C16.7751 16.6575 16.9108 16.5944 17.0721 16.5199C17.3046 16.4123 17.3586 16.2976 17.3816 16.229C17.4645 16.2129 17.5266 16.1872 17.5634 16.1697C17.5652 16.174 17.5671 16.1779 17.569 16.1822C17.5433 16.2952 17.455 16.6218 17.2493 16.7826ZM17.7962 16.3424L17.5966 15.9124L19.9464 14.8219C20.1 15.1138 20.1154 15.4593 20.1154 15.4593L17.7962 16.3424Z" fill="#464655"/>
</svg>
