<svg width="25" height="24" viewBox="0 0 25 24" fill="none" xmlns="http://www.w3.org/2000/svg">
<path d="M16.94 2H8.56C4.92 2 2.75 4.17 2.75 7.81V16.18C2.75 19.83 4.92 22 8.56 22H16.93C20.57 22 22.74 19.83 22.74 16.19V7.81C22.75 4.17 20.58 2 16.94 2ZM18.01 9.96L15.7 12.94C15.41 13.31 15 13.55 14.53 13.6C14.06 13.66 13.6 13.53 13.23 13.24L11.4 11.8C11.33 11.74 11.25 11.74 11.21 11.75C11.17 11.75 11.1 11.77 11.04 11.85L8.66 14.94C8.51 15.13 8.29 15.23 8.07 15.23C7.91 15.23 7.75 15.18 7.61 15.07C7.28 14.82 7.22 14.35 7.47 14.02L9.85 10.93C10.14 10.56 10.55 10.32 11.02 10.26C11.48 10.2 11.95 10.33 12.32 10.62L14.15 12.06C14.22 12.12 14.29 12.12 14.34 12.11C14.38 12.11 14.45 12.09 14.51 12.01L16.82 9.03C17.07 8.7 17.55 8.64 17.87 8.9C18.2 9.17 18.26 9.64 18.01 9.96Z" fill="#787D8F"/>
</svg>
