<svg width="25" height="24" viewBox="0 0 25 24" fill="none" xmlns="http://www.w3.org/2000/svg">
<g clip-path="url(#clip0_2_11188)">
<path d="M12.1075 11.6341C13.431 11.6341 14.5771 11.1594 15.5135 10.2228C16.4499 9.28635 16.9246 8.14057 16.9246 6.81688C16.9246 5.49364 16.4499 4.34771 15.5134 3.41097C14.5768 2.4747 13.4309 2 12.1075 2C10.7838 2 9.63799 2.4747 8.70156 3.41113C7.76513 4.34756 7.29028 5.49349 7.29028 6.81688C7.29028 8.14057 7.76513 9.2865 8.70172 10.2229C9.6383 11.1592 10.7842 11.6341 12.1075 11.6341Z" fill="#787D8F"/>
<path d="M20.5362 17.379C20.5092 16.9893 20.4546 16.5642 20.3742 16.1152C20.293 15.663 20.1885 15.2354 20.0634 14.8447C19.9341 14.4408 19.7583 14.0419 19.541 13.6597C19.3155 13.2629 19.0506 12.9175 18.7534 12.6332C18.4426 12.3358 18.062 12.0967 17.622 11.9223C17.1834 11.7488 16.6974 11.6609 16.1776 11.6609C15.9734 11.6609 15.776 11.7447 15.3946 11.9929C15.16 12.146 14.8855 12.323 14.5791 12.5188C14.3171 12.6857 13.9621 12.8421 13.5238 12.9837C13.0961 13.1221 12.6618 13.1923 12.2332 13.1923C11.8046 13.1923 11.3705 13.1221 10.9423 12.9837C10.5044 12.8422 10.1495 12.6858 9.88776 12.5189C9.58427 12.325 9.30961 12.148 9.07142 11.9928C8.69056 11.7445 8.49296 11.6608 8.2888 11.6608C7.76878 11.6608 7.28295 11.7488 6.84456 11.9225C6.40481 12.0966 6.0241 12.3357 5.71298 12.6334C5.41589 12.9178 5.15084 13.2631 4.92562 13.6597C4.70849 14.0419 4.53271 14.4406 4.40332 14.8448C4.27835 15.2356 4.17383 15.663 4.09265 16.1152C4.01224 16.5635 3.95761 16.9888 3.9306 17.3794C3.90405 17.7621 3.89062 18.1593 3.89062 18.5605C3.89062 19.6045 4.2225 20.4496 4.87695 21.073C5.52331 21.688 6.37856 22.0001 7.4186 22.0001H17.0487C18.0887 22.0001 18.9437 21.6882 19.5902 21.073C20.2448 20.4501 20.5767 19.6048 20.5767 18.5603C20.5765 18.1573 20.5629 17.7598 20.5362 17.379Z" fill="#787D8F"/>
</g>
<defs>
<clipPath id="clip0_2_11188">
<rect width="19.9999" height="20" fill="white" transform="translate(2.25 2)"/>
</clipPath>
</defs>
</svg>
